<?xml version="1.0" encoding="UTF-8" standalone="no"?>
<!-- Created with Inkscape (http://www.inkscape.org/) -->

<svg
   width="210mm"
   height="297mm"
   viewBox="0 0 210 297"
   version="1.1"
   id="svg5"
   inkscape:export-filename="logo.svg"
   inkscape:export-xdpi="96"
   inkscape:export-ydpi="96"
   inkscape:version="1.2.2 (732a01da63, 2022-12-09)"
   sodipodi:docname="logo.svg"
   xmlns:inkscape="http://www.inkscape.org/namespaces/inkscape"
   xmlns:sodipodi="http://sodipodi.sourceforge.net/DTD/sodipodi-0.dtd"
   xmlns="http://www.w3.org/2000/svg"
   xmlns:svg="http://www.w3.org/2000/svg">
  <sodipodi:namedview
     id="namedview7"
     pagecolor="#ffffff"
     bordercolor="#000000"
     borderopacity="0.25"
     inkscape:showpageshadow="2"
     inkscape:pageopacity="0.0"
     inkscape:pagecheckerboard="0"
     inkscape:deskcolor="#d1d1d1"
     inkscape:document-units="mm"
     showgrid="false"
     inkscape:zoom="0.5946522"
     inkscape:cx="3.3633105"
     inkscape:cy="780.28804"
     inkscape:window-width="1920"
     inkscape:window-height="1137"
     inkscape:window-x="1912"
     inkscape:window-y="-8"
     inkscape:window-maximized="1"
     inkscape:current-layer="layer1" />
  <defs
     id="defs2" />
  <g
     inkscape:label="Layer 1"
     inkscape:groupmode="layer"
     id="layer1">
    <path
       id="path396-9"
       style="fill:#116700;fill-opacity:1;fill-rule:evenodd;stroke:none;stroke-width:11;stroke-dasharray:none;stroke-opacity:1"
       d="m 152.10541,80.3373 a 65.405876,65.405876 0 0 0 -65.405826,65.40582 65.405876,65.405876 0 0 0 65.405826,65.40583 65.405876,65.405876 0 0 0 65.40582,-65.40583 65.405876,65.405876 0 0 0 -65.40582,-65.40582 z m 0,12.013221 a 53.392551,53.392551 0 0 1 53.3926,53.392599 53.392551,53.392551 0 0 1 -53.3926,53.39261 53.392551,53.392551 0 0 1 -53.392605,-53.39261 53.392551,53.392551 0 0 1 53.392605,-53.392599 z" />
    <path
       id="path1642"
       style="fill:#800000;fill-opacity:1;fill-rule:evenodd;stroke:none;stroke-width:11;stroke-dasharray:none;stroke-opacity:1"
       d="M 60.003257,80.3373 A 65.405876,65.405876 0 0 0 -5.4025718,145.74312 65.405876,65.405876 0 0 0 60.003257,211.14895 65.405876,65.405876 0 0 0 125.40907,145.74312 65.405876,65.405876 0 0 0 60.003257,80.3373 Z m 0,12.013221 A 53.392551,53.392551 0 0 1 113.39585,145.74312 53.392551,53.392551 0 0 1 60.003257,199.13573 53.392551,53.392551 0 0 1 6.6106494,145.74312 53.392551,53.392551 0 0 1 60.003257,92.350521 Z" />
    <path
       id="path1644"
       style="fill:#d4aa00;fill-opacity:1;fill-rule:evenodd;stroke:none;stroke-width:11;stroke-dasharray:none;stroke-opacity:1"
       d="m 152.10541,80.3373 a 65.405876,65.405876 0 0 0 -65.405826,65.40582 65.405876,65.405876 0 0 0 65.405826,65.40583 65.405876,65.405876 0 0 0 65.40582,-65.40583 65.405876,65.405876 0 0 0 -65.40582,-65.40582 z m 0,12.013221 a 53.392551,53.392551 0 0 1 53.3926,53.392599 53.392551,53.392551 0 0 1 -53.3926,53.39261 53.392551,53.392551 0 0 1 -53.392605,-53.39261 53.392551,53.392551 0 0 1 53.392605,-53.392599 z" />
    <path
       id="path1646"
       style="fill:#800000;fill-opacity:1;fill-rule:evenodd;stroke:none;stroke-width:11;stroke-dasharray:none;stroke-opacity:1"
       d="M -4.6954368,155.28354 A 65.405876,65.405876 0 0 0 60.003456,211.14887 65.405876,65.405876 0 0 0 124.70183,155.28354 H 112.53151 A 53.392551,53.392551 0 0 1 60.003456,199.13565 53.392551,53.392551 0 0 1 7.4965834,155.28354 Z" />
    <text
       xml:space="preserve"
       style="font-size:69.353px;font-family:'Eras Bold ITC';-inkscape-font-specification:'Eras Bold ITC';fill:#800000;fill-opacity:1;fill-rule:evenodd;stroke:none;stroke-width:38.6161;stroke-dasharray:none;stroke-opacity:1"
       x="31.670811"
       y="168.90021"
       id="text1991"><tspan
         sodipodi:role="line"
         id="tspan1989"
         style="fill:#800000;fill-opacity:1;stroke-width:38.6161"
         x="31.670811"
         y="168.90021">D</tspan></text>
    <text
       xml:space="preserve"
       style="font-size:88.5094px;font-family:'Eras Bold ITC';-inkscape-font-specification:'Eras Bold ITC';fill:#d4aa00;fill-opacity:1;fill-rule:evenodd;stroke:none;stroke-width:49.2823;stroke-dasharray:none;stroke-opacity:1"
       x="132.95686"
       y="167.52705"
       id="text2045"><tspan
         sodipodi:role="line"
         id="tspan2043"
         style="fill:#d4aa00;fill-opacity:1;stroke-width:49.2823"
         x="132.95686"
         y="167.52705">s</tspan></text>
  </g>
</svg>
